# xmcd
#
# Track frame offsets:
#	150
#	9215
#	21601
#	32764
#	42098
#	52568
#	62322
#	72144
#	80781
#	90877
#	101964
#	111381
#	119523
#	129065
#	139295
#	148886
#	159972
#	171148
#	181260
#	191666
#
# Disc length: 2701 seconds
#
# Revision: 0
# Processed by: cddbd v1.5.2PL0 Copyright (c) Steve Scherf et al.
# Submitted via: EZCDAudioConverter 2.0.3.1
#
DISCID=080a8b14
DTITLE=Country and Western Nuggets CD 9
DYEAR=1900
DGENRE=
TTITLE0=Beavers Clyde - My Love Is Real
TTITLE1=Buttrum Hillous - What Makes The Grass Grow Greener
TTITLE2=Murphy Jimmy - Grandpaw's A Cat
TTITLE3=Endsley Melvin - I'll Get Even With You
TTITLE4=Swan Jimmy - Country Cattin'
TTITLE5=Walker Wayne - Love Love Love
TTITLE6=Gallion Bob - My Square Dancin' Mama
TTITLE7=McCullough Marvin - Maybe My Baby
TTITLE8=Lee Curly - They Call Me A Hobo
TTITLE9=Skinner Jimmie - Don't Let Love Get You Down
TTITLE10=Miller Frankie - Richest Poor Boy
TTITLE11=Campbell Cecil - Rockin' Guitar
TTITLE12=Hardin Rink - What Did I Do
TTITLE13=Thacker Rudy - Mountain Guitar
TTITLE14=Bonds Lee - Home Coming
TTITLE15=Gibson Don - I Ain't Gonna Waste My Time
TTITLE16=Adams Jerri - All Around This Heart
TTITLE17=Hardin Rink - Big Eli
TTITLE18=Wooley Sheb - Mule Boogie
TTITLE19=Good Larry - Our Hearts Are Out Of Time
EXTD=
EXTT0=
EXTT1=
EXTT2=
EXTT3=
EXTT4=
EXTT5=
EXTT6=
EXTT7=
EXTT8=
EXTT9=
EXTT10=
EXTT11=
EXTT12=
EXTT13=
EXTT14=
EXTT15=
EXTT16=
EXTT17=
EXTT18=
EXTT19=
PLAYORDER=
